TITLE ""
FILE "Disc2Track20.mp3" MP3
  TRACK 01 AUDIO
    TITLE "Disc2Track20_01"
    INDEX 01 00:00:00
  TRACK 02 AUDIO
    TITLE "Disc2Track20_02"
    INDEX 01 00:01:10
  TRACK 03 AUDIO
    TITLE "Disc2Track20_03"
    INDEX 01 00:03:11
  TRACK 04 AUDIO
    TITLE "Disc2Track20_04"
    INDEX 01 00:04:30
  TRACK 05 AUDIO
    TITLE "Disc2Track20_05"
    INDEX 01 00:07:22
  TRACK 06 AUDIO
    TITLE "Disc2Track20_06"
    INDEX 01 00:07:57
  TRACK 07 AUDIO
    TITLE "Disc2Track20_07"
    INDEX 01 00:09:13
  TRACK 08 AUDIO
    TITLE "Disc2Track20_08"
    INDEX 01 00:11:18
  TRACK 09 AUDIO
    TITLE "Disc2Track20_09"
    INDEX 01 00:12:45
  TRACK 10 AUDIO
    TITLE "Disc2Track20_10"
    INDEX 01 00:15:75
  TRACK 11 AUDIO
    TITLE "Disc2Track20_11"
    INDEX 01 00:16:31
  TRACK 12 AUDIO
    TITLE "Disc2Track20_12"
    INDEX 01 00:17:50
  TRACK 13 AUDIO
    TITLE "Disc2Track20_13"
    INDEX 01 00:21:63
  TRACK 14 AUDIO
    TITLE "Disc2Track20_14"
    INDEX 01 00:23:07
  TRACK 15 AUDIO
    TITLE "Disc2Track20_15"
    INDEX 01 00:26:53
  TRACK 16 AUDIO
    TITLE "Disc2Track20_16"
    INDEX 01 00:27:11
  TRACK 17 AUDIO
    TITLE "Disc2Track20_17"
    INDEX 01 00:28:38
  TRACK 18 AUDIO
    TITLE "Disc2Track20_18"
    INDEX 01 00:30:41
  TRACK 19 AUDIO
    TITLE "Disc2Track20_19"
    INDEX 01 00:31:68
  TRACK 20 AUDIO
    TITLE "Disc2Track20_20"
    INDEX 01 00:34:60
  TRACK 21 AUDIO
    TITLE "Disc2Track20_21"
    INDEX 01 00:35:16
  TRACK 22 AUDIO
    TITLE "Disc2Track20_22"
    INDEX 01 00:36:57
  TRACK 23 AUDIO
    TITLE "Disc2Track20_23"
    INDEX 01 00:39:18
  TRACK 24 AUDIO
    TITLE "Disc2Track20_24"
    INDEX 01 00:40:59
  TRACK 25 AUDIO
    TITLE "Disc2Track20_25"
    INDEX 01 00:43:73
  TRACK 26 AUDIO
    TITLE "Disc2Track20_26"
    INDEX 01 00:44:29
  TRACK 27 AUDIO
    TITLE "Disc2Track20_27"
    INDEX 01 00:45:60
  TRACK 28 AUDIO
    TITLE "Disc2Track20_28"
    INDEX 01 00:47:08
  TRACK 29 AUDIO
    TITLE "Disc2Track20_29"
    INDEX 01 00:48:39
  TRACK 30 AUDIO
    TITLE "Disc2Track20_30"
    INDEX 01 00:50:43
  TRACK 31 AUDIO
    TITLE "Disc2Track20_31"
    INDEX 01 00:50:75
  TRACK 32 AUDIO
    TITLE "Disc2Track20_32"
    INDEX 01 00:52:36
  TRACK 33 AUDIO
    TITLE "Disc2Track20_33"
    INDEX 01 00:54:43
  TRACK 34 AUDIO
    TITLE "Disc2Track20_34"
    INDEX 01 00:56:05
  TRACK 35 AUDIO
    TITLE "Disc2Track20_35"
    INDEX 01 01:00:65
  TRACK 36 AUDIO
    TITLE "Disc2Track20_36"
    INDEX 01 01:01:22
  TRACK 37 AUDIO
    TITLE "Disc2Track20_37"
    INDEX 01 01:02:64
  TRACK 38 AUDIO
    TITLE "Disc2Track20_38"
    INDEX 01 01:04:55
  TRACK 39 AUDIO
    TITLE "Disc2Track20_39"
    INDEX 01 01:06:21
  TRACK 40 AUDIO
    TITLE "Disc2Track20_40"
    INDEX 01 01:08:73
  TRACK 41 AUDIO
    TITLE "Disc2Track20_41"
    INDEX 01 01:09:29
  TRACK 42 AUDIO
    TITLE "Disc2Track20_42"
    INDEX 01 01:10:62
  TRACK 43 AUDIO
    TITLE "Disc2Track20_43"
    INDEX 01 01:14:62
  TRACK 44 AUDIO
    TITLE "Disc2Track20_44"
    INDEX 01 01:16:21
  TRACK 45 AUDIO
    TITLE "Disc2Track20_45"
    INDEX 01 01:19:75
  TRACK 46 AUDIO
    TITLE "Disc2Track20_46"
    INDEX 01 01:20:31
  TRACK 47 AUDIO
    TITLE "Disc2Track20_47"
    INDEX 01 01:21:70
  TRACK 48 AUDIO
    TITLE "Disc2Track20_48"
    INDEX 01 01:23:72
  TRACK 49 AUDIO
    TITLE "Disc2Track20_49"
    INDEX 01 01:25:38
